<svg width="15" height="13" viewBox="0 0 15 13" fill="none" xmlns="http://www.w3.org/2000/svg">
<path d="M12.4461 1.74814C11.7774 1.21117 10.9278 0.946851 10.0698 1.00889C9.21175 1.07093 8.40973 1.45468 7.82662 2.08217L7.33847 2.58032L6.85031 2.08217C6.2672 1.45468 5.46518 1.07093 4.60717 1.00889C3.74917 0.946851 2.89953 1.21117 2.23087 1.74814C1.86613 2.06073 1.56928 2.44365 1.35837 2.87361C1.14746 3.30358 1.02689 3.7716 1.00401 4.24923C0.981124 4.72687 1.05639 5.20412 1.22524 5.65199C1.39409 6.09987 1.653 6.50899 1.98621 6.85449L6.77691 11.762C6.84936 11.8373 6.93642 11.8971 7.03283 11.938C7.12925 11.9789 7.23302 12 7.33788 12C7.44274 12 7.54652 11.9789 7.64293 11.938C7.73935 11.8971 7.82641 11.8373 7.89886 11.762L12.6896 6.85449C13.0231 6.50922 13.2824 6.10021 13.4515 5.65235C13.6207 5.20449 13.6962 4.72716 13.6734 4.24943C13.6506 3.77171 13.53 3.30358 13.319 2.87356C13.108 2.44354 12.811 2.06063 12.4461 1.74814V1.74814Z" fill="#C4C4C4" stroke="#C4C4C4" stroke-width="2"/>
</svg>
