<svg width="19" height="16" viewBox="0 0 19 16" fill="none" xmlns="http://www.w3.org/2000/svg">
<path d="M15.5677 1.95218C14.7167 1.26876 13.6353 0.932355 12.5433 1.01132C11.4513 1.09028 10.4306 1.57868 9.68843 2.37731L9.06714 3.01132L8.44585 2.37731C7.70371 1.57868 6.68296 1.09028 5.59095 1.01132C4.49894 0.932355 3.41759 1.26876 2.56656 1.95218C2.10234 2.35003 1.72453 2.83737 1.4561 3.3846C1.18767 3.93182 1.03423 4.52749 1.0051 5.13539C0.975976 5.74328 1.07178 6.3507 1.28668 6.92072C1.50158 7.49074 1.83109 8.01144 2.25517 8.45117L8.35243 14.6971C8.44463 14.7929 8.55544 14.8691 8.67815 14.9211C8.80086 14.9732 8.93294 15 9.0664 15C9.19986 15 9.33193 14.9732 9.45464 14.9211C9.57736 14.8691 9.68816 14.7929 9.78036 14.6971L15.8776 8.45117C16.3022 8.01174 16.6322 7.49117 16.8474 6.92117C17.0627 6.35116 17.1587 5.74366 17.1298 5.13564C17.1008 4.52763 16.9473 3.93183 16.6788 3.38453C16.4102 2.83723 16.0322 2.34989 15.5677 1.95218Z" stroke="#A09F9F" stroke-width="2"/>
</svg>
