<svg width="16" height="18" viewBox="0 0 16 18" fill="none" xmlns="http://www.w3.org/2000/svg">
<path d="M6.35203 1.11098C6.48484 0.782733 6.71265 0.501622 7.00626 0.303684C7.29987 0.105746 7.6459 0 8 0C8.3541 0 8.70013 0.105746 8.99374 0.303684C9.28735 0.501622 9.51516 0.782733 9.64797 1.11098C10.9624 1.47247 12.1218 2.25546 12.9482 3.33969C13.7745 4.42392 14.2221 5.74943 14.2221 7.11266V11.2877L15.8505 13.7303C15.9399 13.8642 15.9911 14.0198 15.999 14.1805C16.0068 14.3413 15.9708 14.5011 15.8949 14.643C15.819 14.7849 15.7059 14.9035 15.5679 14.9862C15.4298 15.0689 15.2719 15.1126 15.111 15.1125H11.0799C10.9729 15.8531 10.6027 16.5302 10.037 17.02C9.47139 17.5098 8.74822 17.7794 8 17.7794C7.25178 17.7794 6.52861 17.5098 5.96297 17.02C5.39732 16.5302 5.02707 15.8531 4.92005 15.1125H0.889007C0.728083 15.1126 0.570171 15.0689 0.432118 14.9862C0.294065 14.9035 0.181051 14.7849 0.105132 14.643C0.0292137 14.5011 -0.00676056 14.3413 0.00104696 14.1805C0.00885447 14.0198 0.060151 13.8642 0.149464 13.7303L1.77788 11.2877V7.11266C1.77788 4.24693 3.71563 1.83275 6.35203 1.11098ZM6.74313 15.1125C6.83493 15.3727 7.00516 15.5979 7.23035 15.7572C7.45553 15.9166 7.72459 16.0021 8.00044 16.0021C8.2763 16.0021 8.54536 15.9166 8.77054 15.7572C8.99573 15.5979 9.16596 15.3727 9.25776 15.1125H6.74224H6.74313ZM8 2.66829C6.82128 2.66829 5.69084 3.13654 4.85736 3.97002C4.02387 4.8035 3.55563 5.93394 3.55563 7.11266V11.557C3.55567 11.7326 3.50371 11.9043 3.4063 12.0504L2.55031 13.3348H13.4488L12.5928 12.0504C12.4957 11.9042 12.4441 11.7325 12.4444 11.557V7.11266C12.4444 5.93394 11.9761 4.8035 11.1426 3.97002C10.3092 3.13654 9.17872 2.66829 8 2.66829Z" fill="#A09F9F"/>
</svg>
