<svg width="24" height="25" viewBox="0 0 24 25" fill="none" xmlns="http://www.w3.org/2000/svg">
<path d="M10.9548 6.22836L7.59297 1.82302C7.20539 1.31535 6.41566 1.2524 5.87197 1.68758L2.53312 4.35893C1.53944 5.15349 1.15988 6.42363 1.59432 7.50288C4.18703 13.9804 9.00551 19.4362 15.269 22.9863C16.3119 23.5786 17.6928 23.4418 18.6865 22.6472L22.0566 19.951C22.6026 19.5149 22.6725 18.7606 22.2085 18.31L18.202 14.4225C17.7829 14.0158 17.0751 14.0061 16.5818 14.4011L14.9449 15.7103C14.8608 15.7808 14.7546 15.823 14.6428 15.8306C14.531 15.8382 14.4196 15.8107 14.3258 15.7524C11.9867 14.2023 10.1217 12.0909 8.92082 9.63307C8.87639 9.53506 8.86702 9.4259 8.89416 9.32234C8.92129 9.21878 8.98343 9.12653 9.07103 9.05976L10.7031 7.75536C11.1977 7.35843 11.3087 6.69096 10.9549 6.22731L10.9548 6.22836Z" stroke="#575757" stroke-width="2" stroke-linecap="round" stroke-linejoin="round"/>
</svg>
