<svg width="7" height="7" viewBox="0 0 7 7" fill="none" xmlns="http://www.w3.org/2000/svg">
<path d="M6.81126 3.17478C6.88975 3.11352 6.94797 3.02805 6.97776 2.93036C7.00754 2.83268 7.00741 2.72767 6.97737 2.63007C6.94733 2.53247 6.88889 2.44717 6.81025 2.38612C6.7316 2.32508 6.6367 2.29136 6.53884 2.28968L4.63825 2.21445C4.6289 2.21377 4.61994 2.21028 4.61245 2.20439C4.60496 2.1985 4.59925 2.19047 4.59601 2.18126L3.93925 0.322543C3.90625 0.227978 3.84632 0.146323 3.76756 0.0886314C3.68881 0.0309401 3.59504 0 3.49894 0C3.40285 0 3.30908 0.0309401 3.23033 0.0886314C3.15157 0.146323 3.09164 0.227978 3.05864 0.322543L2.40399 2.18789C2.40075 2.1971 2.39505 2.20514 2.38755 2.21103C2.38006 2.21692 2.3711 2.22041 2.36175 2.22109L0.461158 2.29632C0.3633 2.29799 0.268395 2.33172 0.189751 2.39276C0.111108 2.45381 0.0526692 2.53911 0.0226291 2.63671C-0.00741086 2.73431 -0.00754563 2.83932 0.0222437 2.937C0.052033 3.03469 0.110253 3.12016 0.188739 3.18142L1.67965 4.4095C1.68711 4.41565 1.69269 4.42396 1.69569 4.4334C1.6987 4.44284 1.69899 4.45299 1.69655 4.46261L1.18338 6.36779C1.15679 6.4648 1.15937 6.56805 1.19076 6.66348C1.22216 6.7589 1.28084 6.84188 1.35884 6.90112C1.43684 6.96036 1.53036 6.99299 1.62668 6.99456C1.723 6.99613 1.81744 6.96658 1.89716 6.90991L3.47255 5.80353C3.48031 5.79792 3.48951 5.79491 3.49894 5.79491C3.50837 5.79491 3.51758 5.79792 3.52534 5.80353L5.10072 6.90991C5.17937 6.96851 5.27347 7 5.36998 7C5.46648 7 5.56058 6.96851 5.63923 6.90991C5.71724 6.85123 5.77599 6.76866 5.80738 6.67356C5.83876 6.57845 5.84125 6.4755 5.8145 6.37885L5.29712 4.46703C5.29438 4.45743 5.29453 4.44718 5.29755 4.43768C5.30058 4.42817 5.30632 4.41988 5.31401 4.41392L6.81126 3.17478Z" fill="#F9B917"/>
</svg>
